<?xml version="1.0" encoding="UTF-8"?>
<!DOCTYPE svg PUBLIC "-//W3C//DTD SVG 1.1//EN" "http://www.w3.org/Graphics/SVG/1.1/DTD/svg11.dtd">
<!-- Creator: CorelDRAW X7 -->
<svg xmlns="http://www.w3.org/2000/svg" xml:space="preserve" width="69.9433mm" height="54.5878mm" version="1.1" style="shape-rendering:geometricPrecision; text-rendering:geometricPrecision; image-rendering:optimizeQuality; fill-rule:evenodd; clip-rule:evenodd"
viewBox="0 0 218 170"
 xmlns:xlink="http://www.w3.org/1999/xlink">
 <defs>
  <style type="text/css">
   <![CDATA[
    .fil122 {fill:#F1A50C}
    .fil116 {fill:#F09E10}
    .fil114 {fill:#EF9C12}
    .fil113 {fill:#EF9A13}
    .fil110 {fill:#EE9416}
    .fil107 {fill:#EE9216}
    .fil106 {fill:#ED9017}
    .fil100 {fill:#EB861A}
    .fil96 {fill:#EB821B}
    .fil95 {fill:#EB801C}
    .fil4 {fill:#E86F1F}
    .fil5 {fill:#E86D20}
    .fil6 {fill:#E76B20}
    .fil7 {fill:#E76820}
    .fil8 {fill:#E76621}
    .fil9 {fill:#E66421}
    .fil12 {fill:#E66221}
    .fil13 {fill:#E65F22}
    .fil17 {fill:#E55B25}
    .fil16 {fill:#E55B24}
    .fil18 {fill:#E55928}
    .fil19 {fill:#E55927}
    .fil23 {fill:#E4552D}
    .fil24 {fill:#E4522F}
    .fil25 {fill:#E4502F}
    .fil26 {fill:#E44E2F}
    .fil30 {fill:#E34B32}
    .fil28 {fill:#E34B30}
    .fil31 {fill:#E34A33}
    .fil34 {fill:#E34735}
    .fil33 {fill:#E34733}
    .fil32 {fill:#E34733}
    .fil35 {fill:#E34536}
    .fil36 {fill:#E34237}
    .fil40 {fill:#E23E3C}
    .fil44 {fill:#E23B3F}
    .fil43 {fill:#E23B3E}
    .fil42 {fill:#E23B3D}
    .fil41 {fill:#E23B3A}
    .fil46 {fill:#E23941}
    .fil45 {fill:#E2393F}
    .fil49 {fill:#E23642}
    .fil51 {fill:#E23444}
    .fil50 {fill:#E23442}
    .fil53 {fill:#E13044}
    .fil52 {fill:#E13043}
    .fil55 {fill:#E12E47}
    .fil56 {fill:#E12E46}
    .fil54 {fill:#E12E45}
    .fil57 {fill:#E12A48}
    .fil59 {fill:#E12849}
    .fil58 {fill:#E12848}
    .fil124 {fill:#F1AB0A}
    .fil123 {fill:#F0A90B}
    .fil121 {fill:#F0A70C}
    .fil120 {fill:#F0A50E}
    .fil119 {fill:#EFA30F}
    .fil118 {fill:#EFA10F}
    .fil117 {fill:#EF9F10}
    .fil115 {fill:#EE9E11}
    .fil112 {fill:#ED9715}
    .fil111 {fill:#ED9616}
    .fil109 {fill:#ED9417}
    .fil108 {fill:#EC9117}
    .fil105 {fill:#EC9018}
    .fil104 {fill:#EB8D19}
    .fil103 {fill:#EB8C1A}
    .fil102 {fill:#EB8A1A}
    .fil101 {fill:#EA881B}
    .fil99 {fill:#EA861B}
    .fil98 {fill:#EA841B}
    .fil97 {fill:#EA821C}
    .fil94 {fill:#E9801C}
    .fil93 {fill:#E97E1D}
    .fil92 {fill:#E87B1E}
    .fil0 {fill:#E8771E}
    .fil1 {fill:#E8751E}
    .fil2 {fill:#E7731F}
    .fil3 {fill:#E7711F}
    .fil10 {fill:#E56421}
    .fil11 {fill:#E56222}
    .fil15 {fill:#E45E24}
    .fil14 {fill:#E45E22}
    .fil21 {fill:#E3572A}
    .fil20 {fill:#E35729}
    .fil22 {fill:#E3552B}
    .fil27 {fill:#E24E30}
    .fil29 {fill:#E24B33}
    .fil37 {fill:#E14238}
    .fil39 {fill:#E1413A}
    .fil38 {fill:#E14139}
    .fil48 {fill:#E13642}
    .fil47 {fill:#E13641}
    .fil60 {fill:#E0284A}
    .fil64 {fill:#E0244D}
    .fil63 {fill:#DF244C}
    .fil62 {fill:#DF244B}
    .fil61 {fill:#DF244A}
    .fil67 {fill:#DF2150}
    .fil66 {fill:#DF214E}
    .fil65 {fill:#DF214B}
    .fil79 {fill:#E01A5E}
    .fil78 {fill:#E01A5C}
    .fil77 {fill:#DF1B5A}
    .fil76 {fill:#DF1B58}
    .fil75 {fill:#DF1B57}
    .fil74 {fill:#DF1C55}
    .fil73 {fill:#DF1C54}
    .fil72 {fill:#DF1C53}
    .fil71 {fill:#DF1C53}
    .fil70 {fill:#DF1C51}
    .fil69 {fill:#DF1D51}
    .fil68 {fill:#DF1D4F}
    .fil128 {fill:#F0B207}
    .fil127 {fill:#F0B008}
    .fil126 {fill:#EFAE09}
    .fil125 {fill:#EFAC0B}
    .fil83 {fill:#DE1A64}
    .fil82 {fill:#DE1A62}
    .fil81 {fill:#DE1A61}
    .fil80 {fill:#DE1B5F}
    .fil132 {fill:#F0BA01}
    .fil131 {fill:#F0B605}
    .fil130 {fill:#EFB506}
    .fil129 {fill:#EFB308}
    .fil89 {fill:#DB196A}
    .fil88 {fill:#DB1A69}
    .fil87 {fill:#DB1A68}
    .fil86 {fill:#DB1A67}
    .fil85 {fill:#DB1B65}
    .fil84 {fill:#DB1B65}
    .fil91 {fill:#7C2B4D}
    .fil90 {fill:#2B2A29;fill-rule:nonzero}
    .fil133 {fill:#252422;fill-rule:nonzero}
   ]]>
  </style>
 </defs>
 <g id="Слой_x0020_1">
  <metadata id="CorelCorpID_0Corel-Layer"/>
  <path class="fil0" d="M94 49l0 5c-4,0 -9,1 -13,1l0 0c5,-2 9,-5 13,-6z"/>
  <polygon class="fil0" points="95,48 95,54 94,54 94,49 "/>
  <polygon class="fil0" points="95,48 95,54 94,54 94,48 "/>
  <polygon class="fil0" points="95,48 95,54 95,54 95,48 "/>
  <polygon class="fil0" points="96,48 96,54 95,54 95,48 "/>
  <polygon class="fil0" points="96,48 96,54 96,54 95,48 "/>
  <polygon class="fil0" points="96,48 97,54 96,54 96,48 "/>
  <polygon class="fil1" points="97,47 97,54 96,54 96,48 "/>
  <polygon class="fil1" points="97,47 97,54 97,54 97,47 "/>
  <polygon class="fil2" points="98,47 98,54 97,54 97,47 "/>
  <polygon class="fil2" points="98,47 98,53 98,54 97,47 "/>
  <polygon class="fil2" points="98,47 99,53 98,53 98,47 "/>
  <polygon class="fil2" points="99,47 99,53 98,53 98,47 "/>
  <polygon class="fil3" points="99,46 99,53 99,53 99,47 "/>
  <polygon class="fil3" points="100,46 100,53 99,53 99,47 "/>
  <polygon class="fil3" points="100,46 100,53 99,53 99,46 "/>
  <polygon class="fil3" points="100,46 100,53 100,53 100,46 "/>
  <polygon class="fil3" points="101,46 101,53 100,53 100,46 "/>
  <polygon class="fil3" points="101,46 101,53 101,53 101,46 "/>
  <polygon class="fil4" points="102,45 102,53 101,53 101,46 "/>
  <polygon class="fil4" points="102,45 102,53 101,53 101,46 "/>
  <polygon class="fil4" points="102,45 102,53 102,53 102,45 "/>
  <polygon class="fil4" points="103,45 103,53 102,53 102,45 "/>
  <polygon class="fil5" points="103,45 103,53 103,53 102,45 "/>
  <polygon class="fil5" points="103,45 104,53 103,53 103,45 "/>
  <polygon class="fil6" points="104,45 104,53 103,53 103,45 "/>
  <polygon class="fil6" points="104,44 104,53 104,53 104,45 "/>
  <polygon class="fil6" points="105,44 105,53 104,53 104,45 "/>
  <polygon class="fil6" points="105,44 105,53 105,53 104,44 "/>
  <polygon class="fil7" points="105,44 106,53 105,53 105,44 "/>
  <polygon class="fil7" points="106,44 106,53 105,53 105,44 "/>
  <polygon class="fil7" points="106,44 106,53 106,53 106,44 "/>
  <polygon class="fil7" points="107,44 107,53 106,53 106,44 "/>
  <polygon class="fil7" points="107,43 107,53 107,53 106,44 "/>
  <polygon class="fil7" points="107,43 107,53 107,53 107,44 "/>
  <polygon class="fil8" points="108,43 108,53 107,53 107,43 "/>
  <polygon class="fil8" points="108,43 108,53 108,53 108,43 "/>
  <polygon class="fil9" points="109,43 109,53 108,53 108,43 "/>
  <polygon class="fil9" points="109,43 109,53 108,53 108,43 "/>
  <polygon class="fil10" points="109,43 109,53 109,53 109,43 "/>
  <polygon class="fil10" points="110,43 110,53 109,53 109,43 "/>
  <polygon class="fil11" points="110,42 110,52 110,53 109,43 "/>
  <polygon class="fil11" points="110,42 111,52 110,52 110,43 "/>
  <polygon class="fil12" points="111,42 111,52 110,52 110,42 "/>
  <polygon class="fil12" points="111,42 111,52 111,52 111,42 "/>
  <polygon class="fil12" points="112,42 112,52 111,52 111,42 "/>
  <polygon class="fil12" points="112,42 112,52 112,52 111,42 "/>
  <polygon class="fil13" points="112,42 113,52 112,52 112,42 "/>
  <polygon class="fil13" points="113,42 113,52 112,52 112,42 "/>
  <polygon class="fil13" points="113,41 113,52 113,52 113,42 "/>
  <polygon class="fil13" points="114,41 114,52 113,52 113,42 "/>
  <polygon class="fil14" points="114,41 114,52 114,52 113,41 "/>
  <polygon class="fil15" points="114,41 115,52 114,52 114,41 "/>
  <polygon class="fil15" points="115,41 115,52 114,52 114,41 "/>
  <polygon class="fil16" points="115,41 115,52 115,52 115,41 "/>
  <polygon class="fil17" points="115,41 116,52 115,52 115,41 "/>
  <polygon class="fil17" points="116,41 116,52 115,52 115,41 "/>
  <polygon class="fil17" points="116,41 116,52 116,52 116,41 "/>
  <polygon class="fil18" points="117,40 117,52 116,52 116,41 "/>
  <polygon class="fil18" points="117,40 117,52 117,52 116,41 "/>
  <polygon class="fil19" points="117,40 118,52 117,52 117,40 "/>
  <polygon class="fil19" points="118,40 118,52 117,52 117,40 "/>
  <polygon class="fil18" points="118,40 118,52 118,52 118,40 "/>
  <polygon class="fil18" points="119,40 119,52 118,52 118,40 "/>
  <polygon class="fil20" points="119,40 119,52 119,52 118,40 "/>
  <polygon class="fil21" points="119,40 120,52 119,52 119,40 "/>
  <polygon class="fil21" points="120,40 120,52 119,52 119,40 "/>
  <polygon class="fil21" points="120,39 120,52 120,52 120,40 "/>
  <polygon class="fil22" points="121,39 121,52 120,52 120,40 "/>
  <polygon class="fil22" points="121,39 121,52 121,52 120,39 "/>
  <polygon class="fil22" points="121,39 122,52 121,52 121,39 "/>
  <polygon class="fil22" points="122,39 122,52 121,52 121,39 "/>
  <polygon class="fil22" points="122,39 122,52 122,52 122,39 "/>
  <polygon class="fil22" points="123,39 123,52 122,52 122,39 "/>
  <polygon class="fil23" points="123,39 123,52 123,52 122,39 "/>
  <polygon class="fil24" points="123,39 123,52 123,52 123,39 "/>
  <polygon class="fil25" points="124,39 124,52 123,52 123,39 "/>
  <polygon class="fil25" points="124,39 124,52 124,52 123,39 "/>
  <polygon class="fil25" points="124,38 125,52 124,52 124,39 "/>
  <polygon class="fil25" points="125,38 125,52 124,52 124,38 "/>
  <polygon class="fil26" points="125,38 125,52 125,52 125,38 "/>
  <polygon class="fil26" points="126,38 126,52 125,52 125,38 "/>
  <polygon class="fil27" points="126,38 126,52 126,52 125,38 "/>
  <polygon class="fil27" points="126,38 127,52 126,52 126,38 "/>
  <polygon class="fil28" points="127,38 127,52 126,52 126,38 "/>
  <polygon class="fil29" points="127,38 127,52 127,52 127,38 "/>
  <polygon class="fil30" points="128,38 128,51 127,52 127,38 "/>
  <polygon class="fil30" points="128,38 128,51 128,52 127,38 "/>
  <polygon class="fil31" points="128,37 129,51 128,51 128,38 "/>
  <polygon class="fil31" points="129,37 129,51 128,51 128,38 "/>
  <polygon class="fil31" points="129,37 129,51 129,51 129,37 "/>
  <polygon class="fil31" points="129,37 130,51 129,51 129,37 "/>
  <polygon class="fil31" points="130,37 130,51 130,51 129,37 "/>
  <polygon class="fil31" points="130,37 131,51 130,51 130,37 "/>
  <polygon class="fil32" points="131,37 131,51 130,51 130,37 "/>
  <polygon class="fil33" points="131,37 131,51 131,51 130,37 "/>
  <polygon class="fil34" points="131,37 132,51 131,51 131,37 "/>
  <polygon class="fil34" points="132,37 132,51 131,51 131,37 "/>
  <polygon class="fil35" points="132,37 132,51 132,51 132,37 "/>
  <polygon class="fil35" points="133,37 133,51 132,51 132,37 "/>
  <polygon class="fil35" points="133,36 133,51 133,51 132,37 "/>
  <polygon class="fil35" points="133,36 134,51 133,51 133,36 "/>
  <polygon class="fil36" points="134,36 134,51 133,51 133,36 "/>
  <polygon class="fil36" points="134,36 134,51 134,51 134,36 "/>
  <polygon class="fil36" points="135,36 135,51 134,51 134,36 "/>
  <polygon class="fil37" points="135,36 135,51 135,51 134,36 "/>
  <polygon class="fil37" points="135,36 136,51 135,51 135,36 "/>
  <polygon class="fil38" points="136,36 136,51 135,51 135,36 "/>
  <polygon class="fil38" points="136,36 136,51 136,51 136,36 "/>
  <polygon class="fil39" points="137,36 137,51 136,51 136,36 "/>
  <polygon class="fil39" points="137,36 137,51 137,51 136,36 "/>
  <polygon class="fil40" points="137,36 138,51 137,51 137,36 "/>
  <polygon class="fil40" points="138,35 138,51 137,51 137,36 "/>
  <polygon class="fil41" points="138,35 138,51 138,51 138,35 "/>
  <polygon class="fil41" points="138,35 139,51 138,51 138,35 "/>
  <polygon class="fil42" points="139,35 139,51 139,51 138,35 "/>
  <polygon class="fil42" points="139,35 139,51 139,51 139,35 "/>
  <polygon class="fil42" points="140,35 140,51 139,51 139,35 "/>
  <polygon class="fil43" points="140,35 140,51 140,51 139,35 "/>
  <polygon class="fil43" points="140,35 141,51 140,51 140,35 "/>
  <polygon class="fil43" points="141,35 141,51 140,51 140,35 "/>
  <polygon class="fil44" points="141,35 141,51 141,51 141,35 "/>
  <polygon class="fil44" points="142,35 142,51 141,51 141,35 "/>
  <polygon class="fil45" points="142,35 142,51 142,51 141,35 "/>
  <polygon class="fil45" points="142,34 143,51 142,51 142,35 "/>
  <polygon class="fil46" points="143,34 143,51 142,51 142,34 "/>
  <polygon class="fil46" points="143,34 143,51 143,51 143,34 "/>
  <polygon class="fil47" points="144,34 144,51 143,51 143,34 "/>
  <polygon class="fil48" points="144,34 144,51 144,51 143,34 "/>
  <polygon class="fil49" points="144,34 145,51 144,51 144,34 "/>
  <polygon class="fil49" points="145,34 145,51 144,51 144,34 "/>
  <polygon class="fil49" points="145,34 145,51 145,51 144,34 "/>
  <polygon class="fil49" points="145,34 146,51 145,51 145,34 "/>
  <polygon class="fil50" points="146,34 146,51 146,51 145,34 "/>
  <polygon class="fil50" points="146,34 147,51 146,51 146,34 "/>
  <polygon class="fil51" points="147,34 147,51 146,51 146,34 "/>
  <polygon class="fil51" points="147,33 147,51 147,51 146,34 "/>
  <polygon class="fil52" points="147,33 148,51 147,51 147,34 "/>
  <polygon class="fil53" points="148,33 148,51 147,51 147,33 "/>
  <polygon class="fil53" points="148,33 148,51 148,51 148,33 "/>
  <polygon class="fil53" points="149,33 149,51 148,51 148,33 "/>
  <polygon class="fil54" points="149,33 149,51 149,51 148,33 "/>
  <polygon class="fil54" points="149,33 150,51 149,51 149,33 "/>
  <polygon class="fil54" points="150,33 150,51 149,51 149,33 "/>
  <polygon class="fil54" points="150,33 150,52 150,51 150,33 "/>
  <polygon class="fil55" points="151,33 151,52 150,51 150,33 "/>
  <polygon class="fil55" points="151,33 151,52 151,52 150,33 "/>
  <polygon class="fil56" points="151,33 152,52 151,52 151,33 "/>
  <polygon class="fil55" points="152,33 152,52 151,52 151,33 "/>
  <polygon class="fil57" points="152,32 152,52 152,52 152,33 152,32 "/>
  <polygon class="fil57" points="152,32 153,52 152,52 152,32 152,32 "/>
  <polygon class="fil58" points="153,32 153,52 153,52 152,32 "/>
  <polygon class="fil58" points="153,32 154,52 153,52 153,32 "/>
  <polygon class="fil58" points="154,32 154,52 153,52 153,32 "/>
  <polygon class="fil59" points="154,32 154,52 154,52 153,32 "/>
  <polygon class="fil59" points="154,31 155,52 154,52 154,32 "/>
  <polygon class="fil60" points="155,31 155,52 155,52 154,32 "/>
  <polygon class="fil60" points="155,31 156,52 155,52 155,31 "/>
  <polygon class="fil61" points="156,31 156,52 155,52 155,31 "/>
  <polygon class="fil61" points="156,31 156,52 156,52 155,31 "/>
  <polygon class="fil62" points="156,31 157,52 156,52 156,31 "/>
  <polygon class="fil63" points="157,31 157,52 156,52 156,31 "/>
  <polygon class="fil63" points="157,30 157,52 157,52 157,31 "/>
  <polygon class="fil63" points="158,30 158,52 157,52 157,31 "/>
  <polygon class="fil64" points="158,30 158,52 158,52 157,30 "/>
  <path class="fil64" d="M158 30l1 22 -1 0 0 -22 0 0c0,0 0,0 0,0z"/>
  <path class="fil65" d="M159 30l0 22c0,0 0,0 -1,0l0 -22c0,0 0,0 1,0z"/>
  <path class="fil65" d="M159 31l0 21 0 0 -1 -22c1,0 1,1 1,1z"/>
  <path class="fil66" d="M159 31l1 21 -1 0 0 -21c0,0 0,0 0,0z"/>
  <path class="fil66" d="M160 31l0 21 0 0 -1 -21c0,0 1,0 1,0z"/>
  <path class="fil66" d="M160 31l1 21 -1 0 0 -21c0,0 0,0 0,0z"/>
  <path class="fil67" d="M161 31l0 21 -1 0 0 -21c0,0 0,0 1,0z"/>
  <path class="fil68" d="M161 31l0 21 0 0 -1 -21c1,0 1,0 1,0z"/>
  <path class="fil68" d="M161 31l1 21 -1 0 0 -21c0,0 0,0 0,0z"/>
  <path class="fil68" d="M162 32l0 20 0 0 -1 -21c0,0 1,0 1,1z"/>
  <path class="fil68" d="M162 32l1 20 -1 0 0 -21c0,1 0,1 0,1z"/>
  <path class="fil68" d="M163 32l0 20 -1 0 0 -20c0,0 0,0 1,0z"/>
  <path class="fil68" d="M163 32l0 20 0 0 -1 -20c1,0 1,0 1,0z"/>
  <path class="fil69" d="M163 32l1 20 -1 0 0 -20c0,0 0,0 0,0z"/>
  <path class="fil69" d="M164 32l0 20c0,0 0,0 0,0l-1 -20c0,0 1,0 1,0z"/>
  <path class="fil69" d="M164 32l1 21 -1 -1 0 -20c0,0 0,0 0,0z"/>
  <path class="fil70" d="M165 32l0 21 -1 0 0 -21c0,0 0,0 1,0z"/>
  <polygon class="fil70" points="165,32 165,53 165,53 164,32 "/>
  <polygon class="fil70" points="165,32 166,53 165,53 165,32 "/>
  <polygon class="fil71" points="166,32 166,53 165,53 165,32 "/>
  <polygon class="fil71" points="166,32 166,53 166,53 166,32 "/>
  <polygon class="fil72" points="167,32 167,53 166,53 166,32 "/>
  <polygon class="fil72" points="167,33 167,53 167,53 166,32 "/>
  <polygon class="fil73" points="167,33 168,53 167,53 167,32 "/>
  <polygon class="fil73" points="168,33 168,53 167,53 167,33 "/>
  <polygon class="fil73" points="168,33 168,53 168,53 168,33 "/>
  <polygon class="fil74" points="169,33 169,53 168,53 168,33 "/>
  <polygon class="fil74" points="169,33 169,53 169,53 168,33 "/>
  <polygon class="fil74" points="169,33 170,53 169,53 169,33 "/>
  <polygon class="fil75" points="170,33 170,53 169,53 169,33 "/>
  <path class="fil75" d="M170 33l0 20c0,0 0,0 0,0l-1 -20 1 0z"/>
  <polygon class="fil75" points="170,33 171,53 170,53 170,33 "/>
  <polygon class="fil75" points="171,33 171,53 171,53 170,33 "/>
  <path class="fil75" d="M171 33l1 20c-1,0 -1,0 -1,0l0 -20 0 0z"/>
  <polygon class="fil75" points="172,33 172,53 171,53 171,33 "/>
  <polygon class="fil76" points="172,33 172,54 172,53 171,33 "/>
  <polygon class="fil77" points="172,33 173,54 172,54 172,33 "/>
  <path class="fil77" d="M173 33l0 21c0,0 0,0 0,0l-1 -21 1 0z"/>
  <polygon class="fil77" points="173,33 174,54 173,54 173,33 "/>
  <path class="fil78" d="M174 33l0 21c0,0 0,0 -1,0l0 -21 1 0z"/>
  <polygon class="fil78" points="174,34 174,54 174,54 173,33 "/>
  <polygon class="fil78" points="174,34 175,54 174,54 174,33 "/>
  <path class="fil78" d="M175 34l0 20c0,0 0,0 -1,0l0 -20 1 0z"/>
  <polygon class="fil78" points="175,34 175,54 175,54 175,34 "/>
  <path class="fil78" d="M176 34l0 20c0,0 -1,0 -1,0l0 -20 1 0z"/>
  <polygon class="fil78" points="176,34 176,54 176,54 175,34 "/>
  <polygon class="fil79" points="176,34 177,54 176,54 176,34 "/>
  <path class="fil79" d="M177 34l0 20c0,0 0,0 -1,0l0 -20 1 0z"/>
  <polygon class="fil79" points="177,34 177,54 177,54 177,34 "/>
  <polygon class="fil79" points="177,34 178,54 177,54 177,34 "/>
  <polygon class="fil79" points="178,34 178,55 178,54 177,34 "/>
  <polygon class="fil79" points="178,34 179,55 178,55 178,34 "/>
  <polygon class="fil80" points="179,34 179,55 178,55 178,34 "/>
  <path class="fil80" d="M179 34l0 21c0,0 0,0 0,0l-1 -21 1 0z"/>
  <polygon class="fil80" points="179,34 180,55 179,55 179,34 "/>
  <polygon class="fil80" points="180,34 180,55 180,55 179,34 "/>
  <path class="fil81" d="M180 34l1 21c-1,0 -1,0 -1,0l0 -21 0 0z"/>
  <polygon class="fil81" points="181,34 181,55 180,55 180,34 "/>
  <path class="fil81" d="M181 35l0 20c0,0 0,0 0,0l-1 -21 1 1z"/>
  <polygon class="fil81" points="181,35 182,55 181,55 181,34 "/>
  <polygon class="fil81" points="182,35 182,55 182,55 181,35 "/>
  <path class="fil81" d="M182 35l1 20c-1,0 -1,0 -1,0l0 -20 0 0z"/>
  <path class="fil82" d="M183 35l0 21c0,-1 0,-1 -1,-1l0 -20 1 0z"/>
  <path class="fil82" d="M183 35l0 6c0,0 0,0 0,0l0 0c0,0 0,0 0,1l0 14c0,0 0,0 0,-1l-1 -20 1 0z"/>
  <path class="fil82" d="M183 35l0 5c0,1 0,1 0,1l0 -6 0 0zm0 7l1 14 -1 0 0 -15c0,1 0,1 0,1z"/>
  <path class="fil82" d="M184 35l0 5c0,0 -1,0 -1,1l0 -6 1 0zm0 7l0 14c0,0 0,0 -1,0l0 -14c0,0 1,0 1,0z"/>
  <path class="fil82" d="M184 35l0 5c0,0 0,0 0,0l0 -5 0 0zm0 7l0 14 0 0 0 -14c0,0 0,0 0,0z"/>
  <path class="fil82" d="M185 35l0 5c-1,0 -1,0 -1,0l0 -5c0,0 0,0 1,0zm0 8l0 13c0,0 -1,0 -1,0l0 -14c0,0 0,0 1,1z"/>
  <path class="fil82" d="M185 35l0 5c0,0 0,0 -1,0l0 -5 1 0zm0 8l0 13 0 0 -1 -14c1,1 1,1 1,1z"/>
  <path class="fil83" d="M185 35l0 5c0,0 0,0 0,0l0 -5 0 0zm0 8l1 13 -1 0 0 -13c0,0 0,0 0,0z"/>
  <path class="fil83" d="M186 35l0 5c0,0 -1,0 -1,0l0 -5 1 0zm0 8l0 13c0,0 0,0 -1,0l0 -13c0,0 1,0 1,0z"/>
  <path class="fil83" d="M186 35l0 5c0,0 0,0 0,0l0 -5c0,0 0,0 0,0zm0 8l0 13 0 0 0 -13c0,0 0,0 0,0z"/>
  <path class="fil84" d="M187 36l0 4c-1,0 -1,0 -1,0l0 -5c0,0 0,0 1,1zm0 7l0 13 -1 0 0 -13c0,0 0,0 1,0z"/>
  <path class="fil84" d="M187 36l0 4c0,0 0,0 -1,0l0 -5c0,1 1,1 1,1zm0 8l0 13 0 -1 -1 -13c1,0 1,0 1,1z"/>
  <path class="fil84" d="M187 36l0 4c0,0 0,0 0,0l0 -4c0,0 0,0 0,0zm0 8l1 13c-1,0 -1,0 -1,0l0 -14c0,1 0,1 0,1z"/>
  <path class="fil84" d="M188 36l0 4c0,0 -1,0 -1,0l0 -4c0,0 0,0 1,0zm0 8l0 13 -1 0 0 -13c0,0 1,0 1,0z"/>
  <path class="fil84" d="M188 36l0 4c0,0 0,0 0,0l0 -4c0,0 0,0 0,0zm0 8l0 13c0,0 0,0 0,0l0 -13c0,0 0,0 0,0z"/>
  <path class="fil84" d="M188 36l1 4c-1,0 -1,0 -1,0l0 -4c0,0 0,0 0,0zm1 8l0 6c0,0 -1,1 -1,1l0 0 1 0 0 6 -1 0 0 -13c0,0 0,0 1,0z"/>
  <path class="fil85" d="M189 36l0 4c0,0 0,0 -1,0l0 -4c0,0 1,0 1,0zm0 8l0 6c0,0 0,0 -1,1l0 -7 1 0zm0 7l0 6c0,0 0,0 0,0l-1 -6c1,0 1,0 1,0z"/>
  <path class="fil86" d="M189 36l0 4 0 0 0 -4c0,0 0,0 0,0zm0 8l0 6c0,0 0,0 0,0l0 -6 0 0zm0 7l1 6c-1,0 -1,0 -1,0l0 -6 0 0z"/>
  <path class="fil86" d="M190 36l0 4 0 0 0 0 -1 0 0 -4c0,0 0,0 1,0zm0 8l0 7c0,0 -1,-1 -1,-1l0 -6 1 0zm0 7l0 6c0,0 0,0 -1,0l0 -6 1 0z"/>
  <path class="fil86" d="M190 36l0 4 0 0 -1 -4c1,0 1,0 1,0zm0 8l0 7c0,0 0,0 0,0l0 -7 0 0zm0 7l0 6 0 0 0 -6 0 0z"/>
  <path class="fil87" d="M190 37l1 4 -1 -1 0 -4c0,0 0,1 0,1zm1 8l0 6c-1,0 -1,0 -1,0l0 -7 1 1zm0 7l0 6 -1 -1 0 -6 1 1z"/>
  <path class="fil87" d="M191 37l0 4c0,0 -1,0 -1,-1l0 -3c0,0 1,0 1,0zm0 8l0 6c0,0 0,0 -1,0l0 -6 1 0zm0 7l0 6c0,0 0,0 0,-1l-1 -5 1 0z"/>
  <path class="fil87" d="M191 37l0 4c0,0 0,0 0,0l0 -4c0,0 0,0 0,0zm0 8l0 6c0,0 0,0 0,0l0 -6 0 0zm0 7l1 6 -1 0 0 -6 0 0z"/>
  <path class="fil87" d="M192 37l0 4c-1,0 -1,0 -1,0l0 -4c0,0 0,0 1,0zm0 8l0 6 0 0 0 0 -1 0 0 -6c0,0 1,0 1,0zm0 7l0 6c0,0 0,0 -1,0l0 -6 1 0z"/>
  <path class="fil88" d="M192 37l0 4c0,0 0,0 -1,0l0 -4c1,0 1,0 1,0zm0 8l0 6 0 0 0 0 0 0 0 -6c0,0 0,0 0,0zm0 7l0 6 0 0 0 -6 0 0z"/>
  <path class="fil88" d="M192 37l0 4c0,0 0,0 0,0l0 -4c0,0 0,0 0,0zm1 8l0 6c-1,0 -1,0 -1,0l0 -6c0,0 0,0 1,0zm0 8l0 5c0,0 -1,0 -1,0l0 -6 1 1z"/>
  <path class="fil88" d="M193 38l0 3c0,0 -1,0 -1,0l0 -4c0,0 1,1 1,1zm0 7l0 6c0,0 0,0 -1,0l0 -6c1,0 1,0 1,0zm0 8l0 5c0,0 0,0 0,0l-1 -5 1 0z"/>
  <path class="fil89" d="M193 38l0 3c0,0 0,0 0,0l0 -4c0,1 0,1 0,1zm0 8l0 5c0,0 0,0 0,0l0 -6c0,0 0,0 0,1zm0 7l1 5c-1,0 -1,0 -1,0l0 -5 0 0z"/>
  <path class="fil89" d="M193 58l0 -5c6,3 13,7 14,11l0 0c-2,0 -5,-3 -7,-3l0 0c-2,-1 -5,-2 -7,-3zm0 -7l0 -6c3,1 5,3 6,5l0 0c-2,1 -4,1 -6,1zm0 -10l0 -3c1,0 2,1 2,2l0 0c0,1 -1,1 -2,1z"/>
  <path class="fil90" d="M208 77c0,-1 -1,-2 -2,-2l-29 0c-1,0 -2,1 -2,2l0 30c0,1 1,2 2,2l29 0c1,0 2,-1 2,-2l0 -5c0,0 -1,-1 -2,-1l-20 0 0 -5 15 0c1,0 2,-1 2,-2l0 -5c0,-1 -1,-1 -2,-1l-15 0 0 -5 20 0c1,0 2,0 2,-1l0 -5zm-64 13l0 -7 8 0c4,0 5,1 5,3 0,2 -1,4 -5,4l-8 0zm18 4c0,0 6,-1 6,-8 0,-6 -5,-11 -16,-11l-17 0c-1,0 -2,1 -2,2l0 30c0,1 1,2 2,2l7 0c1,0 2,-1 2,-2l0 -10 6 0c3,0 4,1 4,3l4 7c1,1 2,2 4,2l7 0c1,0 2,-1 1,-2l-4 -7c-2,-5 -4,-6 -4,-6l0 0zm-54 16c12,0 18,-6 18,-15l0 -18c0,-1 -1,-2 -2,-2l-7 0c-1,0 -2,1 -2,2l0 18c0,4 -2,7 -7,7 -5,0 -7,-3 -7,-7l0 -18c0,-1 -1,-2 -2,-2l-7 0c-1,0 -2,1 -2,2l0 18c0,9 6,15 18,15zm-22 -8c0,0 -1,-1 -2,-1l-18 0 0 -24c0,-1 -1,-2 -2,-2l-7 0c-1,0 -2,1 -2,2l0 30c0,1 1,2 2,2l27 0c1,0 2,-1 2,-2l0 -5zm-56 -17l1 0 4 10 -9 0 4 -10zm10 22c0,1 1,2 2,2l8 0c1,0 2,-1 1,-2l-13 -30c-1,-1 -1,-2 -2,-2l-10 0c-1,0 -2,1 -2,2l-14 30c-1,1 0,2 1,2l8 0c1,0 2,-1 2,-2l2 -4 15 0 2 4z"/>
  <path class="fil91" d="M67 42c0,5 1,10 4,13 3,4 5,1 11,0 8,-4 10,-5 20,-9 3,0 6,-1 9,-2 2,-1 6,-1 9,-2 10,-3 21,-6 32,-10l6 -2 0 0c-2,0 -9,-1 -11,-1 -32,3 -48,4 -80,13z"/>
  <path class="fil0" d="M23 27l1 2c-1,0 -2,1 -3,1l0 0c1,-1 2,-2 2,-3zm1 4l1 17c-2,1 -6,2 -7,-1l0 0c-4,-6 1,-12 4,-15l0 0c1,0 1,0 2,-1z"/>
  <path class="fil0" d="M24 26l0 2c0,1 0,1 -1,1l0 -2c0,0 1,0 1,-1zm0 5l2 17c-1,0 -1,0 -1,1l-2 -17c1,-1 1,-1 1,-1z"/>
  <path class="fil0" d="M24 26l1 2c-1,0 -1,1 -1,1l0 -2c0,-1 0,-1 0,-1zm1 5l1 17 0 0 0 0c0,0 -1,0 -1,0l-1 -17c0,0 0,0 1,0z"/>
  <path class="fil0" d="M25 25l0 3c0,0 0,0 -1,0l0 -2c0,0 1,-1 1,-1zm0 5l2 18c-1,0 -1,0 -1,0l0 0 0 0 -2 -17c1,0 1,0 1,-1z"/>
  <path class="fil0" d="M25 24l0 3c0,0 0,1 0,1l0 -3c0,0 0,0 0,-1zm1 6l1 18c0,0 0,0 -1,0l-1 -17 1 -1z"/>
  <path class="fil0" d="M26 24l0 3c0,0 0,0 -1,0l0 -2c0,-1 1,-1 1,-1zm0 6l2 17c-1,0 -1,1 -1,1l-2 -18c1,0 1,0 1,0z"/>
  <path class="fil92" d="M26 23l1 3 -1 1 0 -3c0,0 0,0 0,-1zm1 6l1 18c0,0 0,0 -1,0l-1 -17c0,0 0,-1 1,-1z"/>
  <path class="fil92" d="M27 23l0 3 -1 1 0 -3c0,-1 1,-1 1,-1zm0 6l2 18c-1,0 -1,0 -1,0l-2 -18c1,0 1,0 1,0z"/>
  <path class="fil92" d="M27 22l0 3 0 1 0 -3c0,0 0,0 0,-1zm1 7l1 18c0,0 0,0 0,0l0 0c0,0 -1,0 -1,0l-1 -18c0,0 0,0 1,0z"/>
  <path class="fil92" d="M28 22l0 3c0,0 -1,0 -1,1l0 -3c0,-1 0,-1 1,-1zm0 6l2 19c-1,0 -1,0 -1,0l-2 -18c1,0 1,-1 1,-1z"/>
  <path class="fil92" d="M28 21l0 3c0,1 0,1 0,1l0 -3c0,0 0,0 0,-1zm1 7l1 20c0,0 0,-1 -1,-1l-1 -19c0,0 0,0 1,0z"/>
  <path class="fil92" d="M29 21l0 3c0,0 -1,0 -1,1l0 -3c0,-1 1,-1 1,-1zm0 7l2 21c0,-1 -1,-1 -1,-1l-2 -20c1,0 1,0 1,0z"/>
  <path class="fil92" d="M29 21l0 3c0,0 0,0 0,0l0 -3c0,0 0,0 0,0zm1 6l1 23c0,-1 0,-1 0,-2l-2 -20c0,0 0,-1 1,-1z"/>
  <path class="fil92" d="M30 20l0 3c0,0 -1,1 -1,1l0 -3c0,0 1,-1 1,-1zm0 7l2 23c0,0 0,0 0,0l0 0c-1,-1 -1,-1 -1,-1l-2 -22c1,0 1,0 1,0z"/>
  <path class="fil92" d="M30 20l0 3c0,0 0,0 0,0l-1 -3c1,0 1,0 1,0zm1 7l1 22c0,1 0,1 0,1l-2 -23c0,0 0,0 1,0z"/>
  <path class="fil92" d="M31 19l0 3c0,1 -1,1 -1,1l0 -3c0,0 0,0 1,-1zm0 7l2 23c0,0 -1,0 -1,0l-1 -22c0,0 0,-1 0,-1zm2 25l0 1c0,0 0,0 0,-1l0 0 0 0z"/>
  <path class="fil92" d="M31 19l0 3c0,0 0,0 0,1l0 -3c0,-1 0,-1 0,-1zm1 7l2 23c-1,0 -1,0 -1,0l-2 -23c0,0 1,0 1,0zm2 25l0 2c0,-1 -1,-1 -1,-2l0 0c0,0 0,0 1,0z"/>
  <path class="fil93" d="M32 19l0 3c0,0 -1,0 -1,0l0 -3c0,0 1,0 1,0zm0 7l2 23c0,0 0,0 -1,0l-1 -23c0,0 0,0 0,0zm2 25l0 2c0,0 0,0 -1,-1l0 -1c1,0 1,0 1,0z"/>
  <path class="fil93" d="M32 18l0 3c0,0 0,1 0,1l0 -3c0,0 0,0 0,-1zm1 7l2 24c-1,0 -1,0 -1,0l-2 -23 1 -1zm2 26l0 3c0,0 -1,-1 -1,-1l0 -2c0,0 0,0 1,0z"/>
  <path class="fil93" d="M33 18l0 3c0,0 -1,0 -1,1l0 -3c0,-1 1,-1 1,-1zm0 7l2 23c0,0 0,1 -1,1l-1 -24 0 0zm2 25l0 4c0,0 0,0 0,0l-1 -3c1,0 1,-1 1,-1z"/>
  <path class="fil93" d="M33 18l0 3c0,0 0,0 0,0l0 -3c0,0 0,0 0,0zm1 7l2 23c-1,0 -1,0 -1,0l-2 -23 1 0zm2 25l0 5c0,-1 0,-1 -1,-1l0 -4c0,0 0,0 1,0z"/>
  <path class="fil93" d="M34 17l0 3c0,1 0,1 -1,1l0 -3c0,0 1,0 1,-1zm0 7l2 24c0,0 0,0 -1,0l-1 -23 0 -1zm2 26l1 5c-1,0 -1,0 -1,-1l-1 -4c1,0 1,0 1,0z"/>
  <path class="fil93" d="M34 17l1 3c-1,0 -1,0 -1,1l0 -4c0,0 0,0 0,0zm1 7l2 23c-1,1 -1,1 -1,1l-2 -23 0 -1 0 0 1 0zm2 25l0 6c0,0 0,0 -1,0l0 -5c0,0 0,0 1,-1z"/>
  <path class="fil93" d="M35 17l0 3c0,0 0,0 -1,0l0 -3c0,0 1,0 1,0zm0 7l2 23c0,0 0,0 -1,1l-1 -24 0 0zm2 25l1 6c-1,0 -1,0 -1,0l-1 -5c1,-1 1,-1 1,-1z"/>
  <path class="fil93" d="M35 16l1 4c-1,0 -1,0 -1,0l0 -3c0,0 0,0 0,-1zm1 7l2 24c-1,0 -1,0 -1,0l-2 -23c0,0 1,0 1,-1zm2 26l0 6c0,0 0,0 -1,0l0 -6c0,0 0,0 1,0z"/>
  <path class="fil93" d="M36 16l0 4c0,0 0,0 -1,0l0 -3c0,-1 1,-1 1,-1zm0 7l2 24c0,0 0,0 -1,0l-1 -23c0,-1 0,-1 0,-1zm2 25l1 7c-1,0 -1,0 -1,0l-1 -6c1,0 1,0 1,-1z"/>
  <path class="fil93" d="M36 16l1 3c-1,0 -1,1 -1,1l0 -4c0,0 0,0 0,0zm1 7l2 23c-1,0 -1,1 -1,1l-2 -24c0,0 1,0 1,0zm2 25l0 7c0,0 0,0 -1,0l0 -6 1 -1z"/>
  <path class="fil93" d="M37 16l0 3c0,0 0,0 -1,0l0 -3c0,0 1,0 1,0zm0 7l2 23 -1 0 -1 -23c0,0 0,0 0,0zm2 25l1 6c0,1 -1,1 -1,1l0 -7 0 0z"/>
  <path class="fil94" d="M37 15l1 4c-1,0 -1,0 -1,0l0 -3c0,-1 0,-1 0,-1zm1 7l2 24 -1 0 -2 -23c0,0 1,-1 1,-1zm2 25l0 7c0,0 0,0 -1,1l0 -7 1 -1z"/>
  <path class="fil94" d="M38 15l0 4c0,0 0,0 -1,0l0 -4c0,0 1,0 1,0zm0 7l2 23 -1 1 -1 -24c0,0 0,0 0,0zm2 25l1 7c0,0 -1,0 -1,0l-1 -6 1 -1z"/>
  <path class="fil94" d="M38 15l1 4c-1,0 -1,0 -1,0l0 -4c0,0 0,0 0,0zm1 6l2 24 -1 1 -2 -24c0,0 1,-1 1,-1zm2 26l0 7c0,0 0,0 0,0l-1 -7 1 0z"/>
  <path class="fil94" d="M39 14l0 5c0,0 0,0 -1,0l0 -4c0,0 1,0 1,-1zm0 7l2 24 -1 0 -1 -24c0,0 0,0 0,0zm2 25l1 8c0,0 -1,0 -1,0l0 -7 0 -1z"/>
  <path class="fil94" d="M39 14l1 5c-1,0 -1,0 -1,0l0 -4c0,-1 0,-1 0,-1zm1 6l2 25c-1,0 -1,0 -1,0l-2 -24c0,0 1,-1 1,-1zm2 26l0 7c0,0 0,1 0,1l-1 -7 1 -1z"/>
  <path class="fil94" d="M40 14l2 30c0,0 0,1 -1,1l-1 -25c0,0 0,-1 0,-1l0 0c0,0 0,0 -1,0l0 -5c0,0 1,0 1,0zm2 32l1 7c0,0 -1,0 -1,0l0 -7 0 0z"/>
  <path class="fil94" d="M40 14l3 30c-1,0 -1,0 -1,0l-2 -30c0,0 0,0 0,0zm3 31l0 8c0,0 0,0 0,0l-1 -7 1 -1z"/>
  <path class="fil95" d="M41 13l2 31c0,0 0,0 -1,0l-2 -30c0,0 1,-1 1,-1zm2 32l1 7c0,0 -1,1 -1,1l0 -7 0 -1z"/>
  <path class="fil95" d="M41 13l3 30c-1,1 -1,1 -1,1l-2 -30c0,-1 0,-1 0,-1zm3 32l0 7c0,0 0,0 0,0l-1 -7c0,0 1,0 1,0z"/>
  <path class="fil95" d="M42 13l2 30c0,0 0,0 -1,1l-2 -31c0,0 1,0 1,0zm2 32l1 7c0,0 -1,0 -1,0l0 -7c0,0 0,0 0,0z"/>
  <path class="fil95" d="M42 13l3 30c-1,0 -1,0 -1,0l-2 -30c0,0 0,0 0,0zm3 31l0 7c0,0 0,1 0,1l-1 -7c0,-1 1,-1 1,-1z"/>
  <path class="fil96" d="M43 12l2 31c0,0 0,0 -1,0l-2 -30c0,0 1,0 1,-1zm2 32l1 7c0,0 -1,0 -1,0l0 -7c0,0 0,0 0,0l0 0 0 0z"/>
  <path class="fil96" d="M43 12l3 30c-1,0 -1,1 -1,1l-2 -30c0,-1 0,-1 0,-1zm3 32l0 6 0 1 -1 -7c0,0 1,0 1,0z"/>
  <path class="fil96" d="M44 12l2 30c0,0 0,0 -1,0l-2 -30c0,0 1,0 1,0zm2 31l1 7 -1 0 0 0 0 1 0 -7c0,0 0,-1 0,-1z"/>
  <path class="fil97" d="M44 12l3 30c0,0 -1,0 -1,0l-2 -30c0,0 0,0 0,0zm3 31l0 7c0,0 0,0 0,0l-1 -7c0,0 1,0 1,0z"/>
  <path class="fil97" d="M45 12l2 30c0,0 0,0 0,0l-3 -30c0,0 1,0 1,0zm2 31l1 6c0,1 -1,1 -1,1l0 -7c0,0 0,0 0,0l0 0 0 0z"/>
  <path class="fil97" d="M46 11l2 31c0,0 -1,0 -1,0l-2 -30c0,0 0,-1 1,-1zm2 31l0 7c0,0 0,0 0,1l-1 -7c0,-1 1,-1 1,-1z"/>
  <path class="fil97" d="M46 11l2 30c0,0 0,1 0,1l-3 -31c1,0 1,0 1,0zm2 31l1 7c0,0 -1,0 -1,0l0 -7c0,0 0,0 0,0z"/>
  <path class="fil98" d="M47 11l2 37c0,1 0,1 0,1l-1 -7c0,0 0,0 1,-1l0 0c0,0 -1,0 -1,0l-2 -30c0,0 0,0 1,0z"/>
  <path class="fil98" d="M47 11l3 37c0,0 -1,0 -1,1l0 -7 0 -1 0 0 0 0 -3 -30c1,0 1,0 1,0z"/>
  <path class="fil98" d="M48 10l2 38c0,0 0,0 0,0l-3 -37c0,0 0,0 1,-1z"/>
  <path class="fil98" d="M48 10l3 38c0,0 -1,0 -1,0l-3 -37c1,-1 1,-1 1,-1z"/>
  <path class="fil98" d="M49 10l2 37c0,0 0,1 0,1l-3 -38c0,0 0,0 1,0z"/>
  <path class="fil98" d="M49 10l3 37c0,0 -1,0 -1,0l-3 -37c1,0 1,0 1,0z"/>
  <path class="fil98" d="M50 10l2 37c0,0 0,0 0,0l-3 -37c0,0 0,0 1,0z"/>
  <path class="fil99" d="M50 10l3 37c0,0 -1,0 -1,0l-3 -37 1 0z"/>
  <path class="fil99" d="M51 9l2 37c0,0 0,0 0,1l-3 -37c0,0 0,-1 1,-1z"/>
  <path class="fil99" d="M51 9l3 37c0,0 -1,0 -1,0l-3 -37c1,0 1,0 1,0z"/>
  <path class="fil99" d="M52 9l2 37c0,0 0,0 0,0l-3 -37c0,0 0,0 1,0z"/>
  <path class="fil100" d="M52 9l3 37c0,0 -1,0 -1,0l-3 -37c1,0 1,0 1,0z"/>
  <path class="fil100" d="M53 9l2 36c0,1 0,1 0,1l-3 -37c0,0 0,0 1,0z"/>
  <path class="fil100" d="M53 8l3 37c0,0 0,0 -1,1l-2 -37c0,0 0,0 0,-1z"/>
  <path class="fil100" d="M54 8l3 37c-1,0 -1,0 -1,0l-3 -36 1 -1z"/>
  <path class="fil100" d="M54 8l3 37c0,0 0,0 -1,0l-2 -37c0,0 0,0 0,0z"/>
  <path class="fil100" d="M55 8l3 37c-1,0 -1,0 -1,0l-3 -37c0,0 1,0 1,0z"/>
  <path class="fil100" d="M55 8l3 36c0,1 0,1 -1,1l-2 -37c0,0 0,0 0,0z"/>
  <path class="fil101" d="M56 8l3 36c-1,0 -1,0 -1,1l-3 -37c0,0 1,0 1,0z"/>
  <path class="fil101" d="M56 7l3 37c0,0 0,0 -1,0l-2 -36 0 0 0 -1z"/>
  <path class="fil101" d="M57 7l3 37c-1,0 -1,0 -1,0l-3 -36 1 -1z"/>
  <path class="fil101" d="M57 7l3 37c0,0 0,0 -1,0l-2 -37 0 0z"/>
  <polygon class="fil101" points="58,7 61,44 60,44 57,7 "/>
  <polygon class="fil101" points="58,7 61,43 60,44 58,7 "/>
  <polygon class="fil101" points="59,7 62,43 61,43 61,43 61,44 58,7 "/>
  <polygon class="fil101" points="60,7 62,43 61,43 59,7 "/>
  <polygon class="fil102" points="60,7 63,43 62,43 59,7 "/>
  <polygon class="fil102" points="61,6 63,43 62,43 60,7 "/>
  <polygon class="fil102" points="61,6 64,43 63,43 60,7 "/>
  <polygon class="fil102" points="62,6 64,43 64,43 61,6 "/>
  <polygon class="fil102" points="62,6 65,42 64,43 61,6 "/>
  <polygon class="fil102" points="63,6 65,42 65,42 62,6 "/>
  <polygon class="fil102" points="63,6 66,42 65,42 62,6 "/>
  <polygon class="fil103" points="64,6 66,42 66,42 63,6 "/>
  <polygon class="fil103" points="64,6 67,42 66,42 63,6 "/>
  <polygon class="fil103" points="65,5 67,42 67,42 64,6 "/>
  <polygon class="fil104" points="65,5 68,41 67,42 64,5 "/>
  <path class="fil104" d="M66 5l2 36c0,0 0,1 0,1l-3 -37 1 0z"/>
  <polygon class="fil104" points="66,5 69,41 68,41 65,5 "/>
  <polygon class="fil104" points="67,5 69,41 69,41 66,5 "/>
  <polygon class="fil104" points="67,5 70,41 69,41 67,5 67,5 67,5 "/>
  <path class="fil104" d="M68 5l3 36 -1 0 -3 -36 0 0 0 0c0,0 1,0 1,0z"/>
  <path class="fil104" d="M68 4l3 37 -1 0 -2 -36c0,0 0,0 0,-1z"/>
  <path class="fil104" d="M69 4l3 37 -1 0 -3 -36c0,-1 1,-1 1,-1z"/>
  <path class="fil105" d="M69 4l3 36 -1 1 -2 -37c0,0 0,0 0,0z"/>
  <path class="fil105" d="M70 4l3 36 -1 0 -3 -36c0,0 1,0 1,0z"/>
  <path class="fil105" d="M70 4l3 36 -1 0 -2 -36c0,0 0,0 0,0z"/>
  <path class="fil106" d="M71 4l3 36 -1 0 -3 -36c0,0 1,0 1,0z"/>
  <path class="fil106" d="M71 4l3 36 -1 0 -2 -36c0,0 0,0 0,0z"/>
  <path class="fil106" d="M72 4l3 36 -1 0 -3 -36c0,0 1,0 1,0z"/>
  <path class="fil106" d="M72 4l3 36 -1 0 -2 -36c0,0 0,0 0,0z"/>
  <path class="fil107" d="M73 3l3 37 -1 0 -3 -36c1,0 1,0 1,-1z"/>
  <path class="fil107" d="M74 3l2 36 -1 1 -2 -36c0,-1 0,-1 1,-1z"/>
  <polygon class="fil107" points="74,3 77,39 76,39 73,3 "/>
  <path class="fil107" d="M75 3l2 36 0 0 -3 -36c0,0 0,0 1,0z"/>
  <polygon class="fil107" points="75,3 78,39 77,39 74,3 "/>
  <polygon class="fil107" points="76,3 78,39 78,39 75,3 "/>
  <path class="fil107" d="M76 3l3 36 -1 0 -3 -36c1,0 1,0 1,0z"/>
  <path class="fil108" d="M77 3l2 36 0 0 -3 -36c0,0 0,0 1,0z"/>
  <polygon class="fil108" points="77,3 80,39 79,39 76,3 "/>
  <polygon class="fil108" points="78,3 80,38 80,39 77,3 "/>
  <polygon class="fil108" points="78,3 81,38 80,39 78,3 "/>
  <polygon class="fil109" points="79,2 82,38 81,38 78,3 "/>
  <polygon class="fil109" points="79,2 82,38 81,38 79,3 "/>
  <polygon class="fil109" points="80,2 83,38 82,38 79,2 "/>
  <polygon class="fil109" points="80,2 83,38 82,38 80,2 "/>
  <polygon class="fil110" points="81,2 84,38 83,38 80,2 "/>
  <polygon class="fil110" points="81,2 84,38 83,38 81,2 "/>
  <polygon class="fil110" points="82,2 85,38 84,38 81,2 "/>
  <polygon class="fil111" points="82,2 85,37 84,38 82,2 "/>
  <polygon class="fil111" points="83,2 86,37 85,38 82,2 "/>
  <polygon class="fil111" points="84,2 86,37 85,37 83,2 "/>
  <polygon class="fil111" points="84,2 87,37 86,37 83,2 "/>
  <polygon class="fil111" points="85,2 87,37 86,37 84,2 "/>
  <polygon class="fil111" points="85,2 88,37 87,37 84,2 "/>
  <polygon class="fil111" points="86,2 88,37 87,37 85,2 "/>
  <polygon class="fil111" points="86,2 89,37 88,37 85,2 "/>
  <polygon class="fil112" points="87,1 89,37 89,37 86,2 "/>
  <polygon class="fil112" points="87,1 90,37 89,37 86,2 "/>
  <polygon class="fil112" points="88,1 90,36 90,37 87,1 "/>
  <polygon class="fil113" points="88,1 91,36 90,37 87,1 "/>
  <polygon class="fil113" points="89,1 91,36 91,36 88,1 "/>
  <polygon class="fil113" points="89,1 92,36 91,36 89,1 "/>
  <polygon class="fil113" points="90,1 92,36 92,36 89,1 "/>
  <polygon class="fil113" points="90,1 93,36 92,36 90,1 "/>
  <polygon class="fil113" points="91,1 94,36 93,36 90,1 "/>
  <polygon class="fil113" points="91,1 94,36 93,36 91,1 "/>
  <polygon class="fil114" points="92,1 95,36 94,36 91,1 "/>
  <polygon class="fil114" points="92,1 95,36 94,36 92,1 "/>
  <path class="fil114" d="M93 1l3 35 -1 0 -3 -35c0,0 1,0 1,0z"/>
  <polygon class="fil114" points="94,1 96,35 95,36 93,1 93,1 "/>
  <polygon class="fil114" points="94,1 97,35 96,36 93,1 "/>
  <polygon class="fil114" points="95,1 97,35 96,35 94,1 "/>
  <polygon class="fil114" points="95,1 98,35 97,35 94,1 "/>
  <polygon class="fil114" points="96,1 98,35 97,35 95,1 "/>
  <polygon class="fil115" points="96,1 99,35 98,35 95,1 "/>
  <polygon class="fil115" points="97,1 99,35 98,35 96,1 "/>
  <polygon class="fil115" points="97,1 100,35 99,35 96,1 "/>
  <polygon class="fil116" points="98,1 100,35 100,35 97,1 "/>
  <polygon class="fil116" points="98,1 101,35 100,35 97,1 "/>
  <polygon class="fil116" points="99,1 101,35 101,35 98,1 "/>
  <polygon class="fil116" points="99,1 102,35 101,35 99,1 "/>
  <polygon class="fil117" points="100,1 102,35 102,35 99,1 "/>
  <polygon class="fil117" points="100,1 103,34 102,35 100,1 "/>
  <polygon class="fil117" points="101,1 103,34 103,34 100,1 "/>
  <polygon class="fil117" points="101,1 104,34 103,34 101,1 "/>
  <polygon class="fil117" points="102,0 105,34 104,34 101,1 "/>
  <polygon class="fil117" points="102,0 105,34 104,34 102,0 "/>
  <polygon class="fil117" points="103,0 106,34 105,34 102,0 "/>
  <polygon class="fil118" points="104,0 106,34 105,34 103,0 "/>
  <polygon class="fil118" points="104,0 107,34 106,34 103,0 "/>
  <polygon class="fil118" points="105,0 107,34 106,34 104,0 "/>
  <polygon class="fil118" points="105,0 108,34 107,34 104,0 "/>
  <polygon class="fil118" points="106,0 108,34 107,34 105,0 "/>
  <polygon class="fil118" points="106,0 109,34 108,34 105,0 "/>
  <polygon class="fil118" points="107,0 109,34 108,34 106,0 "/>
  <polygon class="fil118" points="107,0 110,34 109,34 106,0 "/>
  <polygon class="fil119" points="108,0 110,33 109,34 107,0 "/>
  <polygon class="fil119" points="108,0 111,33 110,33 108,0 "/>
  <polygon class="fil119" points="109,0 111,33 111,33 108,0 "/>
  <polygon class="fil119" points="109,0 112,33 111,33 109,0 "/>
  <polygon class="fil119" points="110,0 112,33 112,33 109,0 "/>
  <polygon class="fil119" points="110,0 113,33 112,33 110,0 "/>
  <polygon class="fil119" points="111,0 113,33 113,33 110,0 "/>
  <polygon class="fil119" points="111,0 114,33 113,33 111,0 111,0 111,0 "/>
  <polygon class="fil119" points="112,0 115,33 114,33 111,0 111,0 111,0 "/>
  <polygon class="fil119" points="113,0 115,33 114,33 112,0 "/>
  <polygon class="fil119" points="113,0 116,33 115,33 112,0 "/>
  <polygon class="fil120" points="114,0 116,33 115,33 113,0 113,0 113,0 "/>
  <polygon class="fil120" points="114,0 117,33 116,33 113,0 113,0 113,0 "/>
  <polygon class="fil120" points="115,0 117,33 116,33 114,0 "/>
  <polygon class="fil121" points="115,0 118,33 117,33 114,0 "/>
  <polygon class="fil121" points="116,0 118,33 117,33 115,0 "/>
  <polygon class="fil121" points="116,0 119,32 118,33 115,0 "/>
  <polygon class="fil121" points="117,0 119,32 118,33 116,0 "/>
  <polygon class="fil122" points="117,0 120,32 119,32 116,0 "/>
  <polygon class="fil122" points="118,0 120,32 120,32 117,0 "/>
  <polygon class="fil122" points="118,0 121,32 120,32 118,0 "/>
  <polygon class="fil121" points="119,0 121,32 121,32 118,0 "/>
  <polygon class="fil121" points="119,0 122,32 121,32 119,0 "/>
  <polygon class="fil121" points="120,0 122,32 122,32 119,0 "/>
  <polygon class="fil121" points="120,0 123,32 122,32 120,0 "/>
  <polygon class="fil123" points="121,0 123,32 123,32 120,0 "/>
  <polygon class="fil123" points="122,0 124,32 123,32 121,0 "/>
  <polygon class="fil123" points="122,0 124,32 124,32 121,0 "/>
  <polygon class="fil123" points="123,0 125,32 124,32 122,0 "/>
  <polygon class="fil123" points="123,0 126,32 125,32 122,0 "/>
  <polygon class="fil123" points="124,0 126,32 125,32 123,0 "/>
  <polygon class="fil123" points="124,0 127,32 126,32 123,0 "/>
  <polygon class="fil124" points="125,0 127,32 126,32 124,0 "/>
  <polygon class="fil124" points="125,0 128,32 127,32 124,0 "/>
  <polygon class="fil124" points="126,0 128,32 127,32 125,0 "/>
  <polygon class="fil124" points="126,0 129,32 128,32 126,0 "/>
  <polygon class="fil125" points="127,0 129,32 128,32 126,0 "/>
  <polygon class="fil125" points="127,0 130,31 129,32 127,0 "/>
  <polygon class="fil125" points="128,0 130,31 129,32 127,0 "/>
  <polygon class="fil125" points="128,0 131,31 130,31 128,0 "/>
  <polygon class="fil125" points="129,0 131,31 131,31 128,0 "/>
  <path class="fil125" d="M130 0l2 31 -1 0 -2 -31c0,0 0,0 1,0z"/>
  <polygon class="fil125" points="130,1 132,31 132,31 129,0 "/>
  <path class="fil125" d="M131 1l2 30 -1 0 -2 -31c0,1 0,1 1,1z"/>
  <path class="fil125" d="M131 1l2 30 0 0 -3 -30c1,0 1,0 1,0z"/>
  <polygon class="fil125" points="132,1 134,31 133,31 131,1 "/>
  <path class="fil125" d="M132 1l3 30 -1 0 -3 -30c1,0 1,0 1,0z"/>
  <path class="fil126" d="M133 1l2 30 -1 0 -2 -30c0,0 0,0 1,0z"/>
  <path class="fil126" d="M133 1l3 30 -1 0 -3 -30c1,0 1,0 1,0z"/>
  <path class="fil126" d="M134 1l2 30 -1 0 -2 -30c0,0 1,0 1,0z"/>
  <path class="fil126" d="M134 1l3 30 -1 0 -2 -30c0,0 0,0 0,0z"/>
  <path class="fil126" d="M135 1l2 30 -1 0 -2 -30c0,0 1,0 1,0z"/>
  <path class="fil126" d="M135 1l3 30 -1 0 -2 -30c0,0 0,0 0,0z"/>
  <path class="fil126" d="M136 1l2 30 -1 0 -2 -30c0,0 1,0 1,0z"/>
  <path class="fil127" d="M136 1l3 30 -1 0 -2 -30c0,0 0,0 0,0z"/>
  <path class="fil127" d="M137 1l2 30 -1 0 -2 -30c0,0 1,0 1,0z"/>
  <path class="fil127" d="M138 1l0 3 0 0 0 0 0 0 2 27 -1 0 -2 -30c0,0 0,0 1,0z"/>
  <path class="fil127" d="M138 2l0 2 0 0 0 0c0,0 0,0 0,0l2 27 0 0 -3 -30c1,0 1,0 1,1z"/>
  <path class="fil128" d="M139 2l0 1 -1 1 0 -3c0,1 0,1 1,1zm0 3l2 26 -1 0 -2 -27c0,0 1,0 1,1z"/>
  <path class="fil128" d="M139 2l0 1 0 0 -1 -1c1,0 1,0 1,0zm0 3l2 26 0 0 -2 -27c0,1 0,1 0,1z"/>
  <path class="fil128" d="M140 2l0 0 -1 1 0 -1c0,0 0,0 1,0zm0 3l2 26 -1 0 -2 -26c0,0 1,0 1,0z"/>
  <path class="fil128" d="M140 5l2 26 0 0 -2 -26c0,0 0,0 0,0zm-1 -3l0 0c1,0 1,0 1,0l-1 0z"/>
  <path class="fil129" d="M141 5l2 26 -1 0 -2 -26c0,0 1,0 1,0z"/>
  <path class="fil129" d="M142 5l1 26 0 0 -2 -26c0,0 0,0 1,0z"/>
  <path class="fil129" d="M142 5l2 26 -1 0 -2 -26c1,0 1,0 1,0z"/>
  <path class="fil129" d="M143 5l2 26 -1 0 -2 -26c0,0 0,0 1,0z"/>
  <path class="fil129" d="M143 5l2 25 -1 1 -2 -26c1,0 1,0 1,0z"/>
  <path class="fil129" d="M144 5l2 25 -1 0 -2 -25c0,0 0,0 1,0z"/>
  <path class="fil129" d="M144 5l2 25 -1 0 -2 -25c1,0 1,0 1,0z"/>
  <path class="fil130" d="M145 5l2 25 -1 0 -2 -25c0,0 0,0 1,0z"/>
  <path class="fil130" d="M145 5l2 25 -1 0 -2 -25c1,0 1,0 1,0z"/>
  <path class="fil130" d="M146 5l2 25 -1 0 -2 -25c0,0 1,0 1,0z"/>
  <polygon class="fil130" points="146,5 148,30 147,30 146,5 "/>
  <polygon class="fil130" points="147,5 149,30 148,30 146,5 "/>
  <polygon class="fil130" points="147,5 149,30 148,30 147,5 "/>
  <polygon class="fil130" points="148,5 150,30 149,30 147,5 "/>
  <polygon class="fil130" points="148,5 150,30 150,30 148,5 "/>
  <polygon class="fil130" points="149,5 151,30 150,30 148,5 "/>
  <path class="fil130" d="M150 5l1 25 0 0 -2 -25c0,0 0,0 1,0z"/>
  <path class="fil130" d="M150 5l2 25 -1 0 -2 -25c1,0 1,0 1,0z"/>
  <path class="fil131" d="M151 5l1 25 0 0 -2 -25c0,0 0,0 1,0z"/>
  <path class="fil131" d="M151 5l2 25 -1 0 -2 -25c1,0 1,0 1,0z"/>
  <path class="fil131" d="M152 6l1 24 0 0 -2 -25c0,0 0,0 1,1z"/>
  <path class="fil131" d="M152 6l2 24 -1 0 -2 -25c1,1 1,1 1,1z"/>
  <path class="fil131" d="M153 6l2 24 -1 0 -2 -24c0,0 0,0 1,0z"/>
  <path class="fil131" d="M153 6l2 24 -1 0 -2 -24c1,0 1,0 1,0z"/>
  <path class="fil131" d="M154 6l2 24 -1 0 -2 -24c0,0 1,0 1,0z"/>
  <path class="fil132" d="M154 6l2 24 -1 0 -1 -24c0,0 0,0 0,0z"/>
  <path class="fil132" d="M155 6l2 24 -1 0 -2 -24c0,0 1,0 1,0z"/>
  <path class="fil132" d="M155 6l1 5c0,0 0,0 0,1l0 0 0 0 1 18 -1 0 -1 -24c0,0 0,0 0,0z"/>
  <path class="fil132" d="M156 6l0 3c0,1 0,1 0,2l-1 -5c0,0 1,0 1,0zm0 6l2 18 -1 0 -1 -18c0,0 0,0 0,0z"/>
  <path class="fil132" d="M157 6l0 3c-1,0 -1,0 -1,1l0 -4c0,0 0,0 1,0zm0 7l1 17c0,0 0,0 0,0l0 0 -1 0 -1 -18c0,0 1,1 1,1z"/>
  <path class="fil132" d="M158 30l-1 -17c11,7 9,15 1,17zm-2 -21l0 -3c1,0 1,0 1,0l0 0c0,2 0,3 -1,3z"/>
  <path class="fil133" d="M75 130c1,0 1,-1 2,-1 0,0 1,-1 1,-2 0,0 -1,-1 -1,-1 -1,-1 -1,-1 -2,-1l0 5zm-4 -4c-1,0 -1,1 -1,1 0,1 0,2 1,2 0,0 1,1 1,1l0 -5c0,0 -1,0 -1,1zm-2 4c-1,0 -2,-1 -2,-3 0,-1 1,-2 2,-3 1,0 2,-1 3,-1l0 0c0,-1 0,-1 1,-1 0,0 0,0 0,0l1 0c1,0 1,0 1,0 0,0 0,0 0,1l0 0c2,0 3,1 4,1 1,1 1,2 1,3 0,2 0,3 -1,3 -1,1 -2,1 -4,1l0 1c0,0 0,0 0,1 0,0 0,0 -1,0l-1 0c0,0 0,0 0,0 -1,-1 -1,-1 -1,-1l0 -1c-1,0 -2,0 -3,-1z"/>
  <path class="fil133" d="M84 128l5 0 0 -4 -2 0c-1,0 -1,0 -1,1 -1,0 -1,0 -1,1l-1 2zm-3 4l1 -7c1,-2 2,-3 5,-3l4 0c0,0 0,0 0,0 0,1 0,1 0,1l0 9c0,0 0,0 0,0 0,0 0,0 0,0l-2 0c0,0 0,0 0,0 0,0 0,0 0,0l0 -2 -5 0 -1 2c0,0 0,0 0,0 0,0 0,0 0,0l-2 0c0,0 0,0 0,0 0,0 0,0 0,0 0,0 0,0 0,0z"/>
  <path class="fil133" d="M96 130l4 0c0,0 1,0 1,-1 0,-1 -1,-1 -1,-1l-4 0 0 2zm-3 2l0 -9c0,0 1,0 1,-1 0,0 0,0 0,0l8 0c0,0 0,0 0,0 1,1 1,1 1,1l0 1c0,0 0,0 -1,0 0,0 0,0 0,0l-6 0 0 2 4 0c1,0 2,0 2,1 1,0 1,1 1,2 0,1 0,2 -1,3 0,0 -1,0 -2,0l-6 0c0,0 0,0 0,0 0,0 -1,0 -1,0z"/>
  <path class="fil133" d="M107 128l3 0c1,0 1,0 2,0 0,-1 0,-1 0,-2 0,-1 0,-1 0,-1 -1,-1 -1,-1 -2,-1l-3 0 0 4zm-2 4l0 -9c0,0 0,0 0,-1 0,0 0,0 0,0l6 0c3,0 4,2 4,4 0,3 -1,4 -4,4l-4 0 0 2c0,0 0,0 0,0 0,0 0,0 0,0l-2 0c0,0 0,0 0,0 0,0 0,0 0,0z"/>
  <path class="fil133" d="M116 132l0 -9c0,0 0,0 0,-1 1,0 1,0 1,0l1 0c0,0 1,0 1,0 0,1 0,1 0,1l0 7 4 -7c0,0 0,0 0,-1 1,0 1,0 1,0l2 0c0,0 0,0 0,0 1,1 1,1 1,1l0 9c0,0 0,0 -1,0 0,0 0,0 0,0l-1 0c-1,0 -1,0 -1,0 0,0 0,0 0,0l0 -7 -4 7c0,0 0,0 0,0 0,0 -1,0 -1,0l-2 0c0,0 0,0 -1,0 0,0 0,0 0,0z"/>
  <path class="fil133" d="M128 132l0 -9c0,0 0,0 1,-1 0,0 0,0 0,0l1 0c1,0 1,0 1,0 0,1 0,1 0,1l0 3 2 0c0,0 0,0 1,0 0,0 0,-1 1,-1l1 -2c0,0 0,-1 1,-1l1 0c0,0 1,0 1,0 0,1 0,1 0,1 0,0 0,0 -1,0l-1 3c0,0 -1,0 -1,1 0,0 0,0 -1,0 0,0 1,1 1,1 0,0 1,0 1,1l2 3c0,0 0,0 0,0 0,0 0,0 0,0 0,0 0,0 -1,0l-1 0c0,0 -1,0 -1,0 0,0 0,0 0,0l-1 -2c-1,-1 -1,-1 -1,-1 -1,-1 -1,-1 -1,-1l-2 0 0 4c0,0 0,0 0,0 0,0 0,0 -1,0l-1 0c0,0 0,0 0,0 -1,0 -1,0 -1,0z"/>
  <path class="fil133" d="M143 128l4 0 0 -4 -2 0c0,0 -1,0 -1,1 0,0 -1,0 -1,1l0 2zm-4 4l2 -7c0,-2 2,-3 4,-3l4 0c0,0 0,0 1,0 0,1 0,1 0,1l0 9c0,0 0,0 0,0 -1,0 -1,0 -1,0l-1 0c0,0 -1,0 -1,0 0,0 0,0 0,0l0 -2 -5 0 0 2c0,0 0,0 -1,0 0,0 0,0 0,0l-2 0c0,0 0,0 0,0 0,0 0,0 0,0 0,0 0,0 0,0z"/>
  <path class="fil133" d="M4 149l5 0 0 -6 -2 0c-1,0 -1,0 -1,0 -1,1 -1,1 -1,1l-1 5zm-4 1l0 0c0,-1 0,-1 0,-1 0,0 0,0 1,0l0 0 1 -5c1,-2 2,-3 5,-3l4 0c0,0 0,0 0,0 0,0 0,0 0,1l0 8c0,1 0,1 0,1 0,0 0,0 0,0l-10 0c-1,0 -1,0 -1,0 0,0 0,-1 0,-1z"/>
  <path class="fil133" d="M13 150l0 -8c0,-1 1,-1 1,-1 0,0 0,0 0,0l8 0c0,0 1,0 1,0 0,0 0,0 0,1l0 0c0,0 0,1 0,1 0,0 -1,0 -1,0l-6 0 0 2 5 0c1,0 1,0 1,0 0,0 0,0 0,1l0 0c0,0 0,1 0,1 0,0 0,0 -1,0l-5 0 0 2 6 0c0,0 1,0 1,0 0,0 0,0 0,1l0 0c0,1 0,1 0,1 -1,0 -1,0 -1,0l-8 0c0,0 0,0 0,0 0,0 -1,-1 -1,-1z"/>
  <path class="fil133" d="M24 150l0 -8c0,-1 0,-1 0,-1 0,0 1,0 1,0l1 0c0,0 0,0 1,0 0,0 0,0 0,1l0 3 1 0c1,0 1,0 1,0 1,-1 1,-1 1,-1l1 -2c1,-1 1,-1 1,-1l2 0c0,0 0,0 0,0 0,0 0,0 0,0 0,0 0,0 0,1l-1 2c-1,1 -1,1 -1,1 0,1 -1,1 -1,1 0,0 0,0 1,0 0,1 0,1 1,2l1 2c0,0 0,1 0,1 0,0 0,0 0,0 0,0 0,0 0,0l-1 0c-1,0 -1,0 -1,0 0,0 0,0 -1,-1l-1 -2c0,0 0,0 -1,-1 0,0 0,0 -1,0l-1 0 0 3c0,1 0,1 0,1 -1,0 -1,0 -1,0l-1 0c0,0 -1,0 -1,0 0,0 0,-1 0,-1z"/>
  <path class="fil133" d="M38 143c0,1 0,2 0,3 0,1 0,2 0,2 1,1 2,1 3,1 1,0 1,0 2,-1 0,0 1,-1 1,-2 0,-1 -1,-2 -1,-3 -1,0 -1,0 -2,0 -1,0 -2,0 -3,0zm-2 7c-1,-1 -1,-2 -1,-4 0,-2 0,-3 1,-4 1,-1 3,-1 5,-1 1,0 3,0 4,1 1,1 1,2 1,4 0,2 0,3 -1,4 -1,1 -3,1 -4,1 -2,0 -4,0 -5,-1z"/>
  <path class="fil133" d="M50 147l3 0c1,0 1,0 2,-1 0,0 0,0 0,-1 0,-1 0,-1 0,-2 -1,0 -1,0 -2,0l-3 0 0 4zm-2 3l0 -8c0,-1 0,-1 0,-1 0,0 0,0 0,0l6 0c2,0 4,1 4,4 0,2 -2,4 -4,4l-4 0 0 1c0,0 0,1 0,1 0,0 0,0 0,0l-2 0c0,0 0,0 0,0 0,0 0,-1 0,-1z"/>
  <path class="fil133" d="M62 147l4 0 0 -4 -2 0c0,0 0,0 -1,0 0,1 0,1 0,1l-1 3zm-4 3l2 -6c0,-2 2,-3 5,-3l3 0c1,0 1,0 1,0 0,0 0,0 0,1l0 8c0,1 0,1 0,1 0,0 0,0 -1,0l-1 0c0,0 0,0 0,0 -1,0 -1,0 -1,-1l0 -1 -5 0 0 1c0,1 0,1 0,1 -1,0 -1,0 -1,0l-1 0c0,0 -1,0 -1,0 0,0 0,0 0,-1 0,0 0,0 0,0z"/>
  <path class="fil133" d="M70 142l0 0c0,-1 0,-1 0,-1 0,0 1,0 1,0l9 0c0,0 0,0 0,0 0,0 0,0 0,1l0 0c0,0 0,1 0,1 0,0 0,0 0,0l-3 0 0 7c0,1 0,1 -1,1 0,0 0,0 0,0l-1 0c-1,0 -1,0 -1,0 0,0 0,0 0,-1l0 -7 -3 0c0,0 -1,0 -1,0 0,0 0,-1 0,-1z"/>
  <path class="fil133" d="M81 150l0 -8c0,-1 1,-1 1,-1 0,0 0,0 0,0l1 0c1,0 1,0 1,0 0,0 0,0 0,1l0 7 4 -7c0,-1 0,-1 1,-1 0,0 0,0 0,0l2 0c0,0 1,0 1,0 0,0 0,0 0,1l0 8c0,1 0,1 0,1 0,0 -1,0 -1,0l-1 0c0,0 0,0 -1,0 0,0 0,0 0,-1l0 -6 -3 6c-1,1 -1,1 -1,1 0,0 0,0 0,0l-3 0c0,0 0,0 0,0 0,0 -1,0 -1,-1z"/>
  <path class="fil133" d="M96 149l4 0c1,0 1,0 1,0 0,0 0,-1 0,-1 0,0 0,-1 0,-1 0,0 0,0 -1,0l-4 0 0 2zm0 -4l4 0c0,0 1,0 1,0 0,-1 0,-1 0,-1 0,0 0,-1 0,-1 0,0 -1,0 -1,0l-4 0 0 2zm-2 -3c0,-1 0,-1 0,-1 0,0 0,0 0,0l6 0c1,0 1,0 2,0 0,0 1,1 1,1 0,1 1,1 1,2 0,0 -1,1 -1,2 1,0 1,1 1,2 0,1 0,2 -1,2 -1,1 -2,1 -3,1l-6 0c0,0 0,0 0,0 0,0 0,-1 0,-1l0 -8z"/>
  <path class="fil133" d="M105 150l0 -8c0,-1 1,-1 1,-1 0,0 0,0 0,0l1 0c1,0 1,0 1,0 0,0 0,0 0,1l0 3 5 0 0 -3c0,-1 0,-1 0,-1 0,0 0,0 1,0l1 0c0,0 0,0 0,0 0,0 1,0 1,1l0 8c0,1 -1,1 -1,1 0,0 0,0 0,0l-1 0c-1,0 -1,0 -1,0 0,0 0,0 0,-1l0 -3 -5 0 0 3c0,1 0,1 0,1 0,0 0,0 -1,0l-1 0c0,0 0,0 0,0 0,0 -1,0 -1,-1z"/>
  <path class="fil133" d="M128 150l0 -8c0,-1 0,-1 0,-1 1,0 1,0 1,0l1 0c0,0 1,0 1,0 0,0 0,0 0,1l0 8c0,0 0,1 0,1 0,0 -1,0 -1,0l-1 0c0,0 0,0 -1,0 0,0 0,0 0,-1zm-8 -1l3 0c1,0 1,0 1,-1 0,-1 0,-2 -1,-2l-3 0 0 3zm-2 1l0 -8c0,-1 0,-1 0,-1 0,0 0,0 0,0l2 0c0,0 0,0 0,0 0,0 0,0 0,1l0 2 3 0c1,0 2,1 3,1 1,1 1,2 1,3 0,1 0,2 -1,2 -1,1 -2,1 -3,1l-5 0c0,0 0,0 0,0 0,0 0,-1 0,-1z"/>
  <path class="fil133" d="M132 151c0,0 0,0 0,0 0,0 0,-1 0,-1l4 -4 -4 -4c0,-1 0,-1 0,-1 0,0 0,0 0,0 0,0 0,0 1,0l1 0c1,0 1,0 1,1l2 2 2 -2c1,-1 1,-1 1,-1l2 0c0,0 0,0 0,0 0,0 0,0 0,0 0,0 0,0 0,1l-3 4 3 4c0,0 1,1 1,1 0,0 0,0 0,0 -1,0 -1,0 -1,0l-1 0c-1,0 -1,0 -2,-1l-2 -2 -2 2c0,1 -1,1 -1,1l-2 0c0,0 0,0 0,0z"/>
  <path class="fil133" d="M149 150l0 -8c0,-1 0,-1 0,-1 0,0 0,0 0,0l2 0c0,0 0,0 0,0 0,0 0,0 0,1l0 3 2 0c0,0 1,0 1,0 0,-1 0,-1 1,-1l1 -2c0,-1 0,-1 1,-1l1 0c1,0 1,0 1,0 0,0 0,0 0,0 0,0 0,0 0,1l-2 2c0,1 0,1 -1,1 0,1 0,1 -1,1 1,0 1,0 1,0 1,1 1,1 1,2l2 2c0,0 0,1 0,1 0,0 0,0 0,0 0,0 0,0 0,0l-2 0c0,0 0,0 -1,0 0,0 0,0 0,-1l-1 -2c-1,0 -1,0 -1,-1 0,0 -1,0 -1,0l-2 0 0 3c0,1 0,1 0,1 0,0 0,0 0,0l-2 0c0,0 0,0 0,0 0,0 0,-1 0,-1z"/>
  <path class="fil133" d="M163 147l2 0c1,0 2,0 2,-1 0,0 1,0 1,-1 0,-1 -1,-1 -1,-2 0,0 -1,0 -2,0l-2 0 0 4zm-3 3l0 -8c0,-1 0,-1 0,-1 0,0 1,0 1,0l5 0c3,0 4,1 4,4 0,2 -1,4 -4,4l-3 0 0 1c0,0 0,1 -1,1 0,0 0,0 0,0l-1 0c0,0 -1,0 -1,0 0,0 0,-1 0,-1z"/>
  <path class="fil133" d="M174 147l5 0 0 -4 -2 0c-1,0 -1,0 -1,0 -1,1 -1,1 -1,1l-1 3zm-3 3l1 -6c1,-2 2,-3 5,-3l4 0c0,0 0,0 0,0 0,0 0,0 0,1l0 8c0,1 0,1 0,1 0,0 0,0 0,0l-2 0c0,0 0,0 0,0 0,0 0,0 0,-1l0 -1 -5 0 -1 1c0,1 0,1 0,1 0,0 0,0 0,0l-2 0c0,0 0,0 0,0 0,0 0,0 0,-1 0,0 0,0 0,0z"/>
  <path class="fil133" d="M184 150c-1,-1 -1,-2 -1,-4 0,-2 0,-3 1,-4 1,-1 2,-1 4,-1l2 0c1,0 2,0 3,1 0,0 1,1 1,2 0,0 0,0 -1,1 0,0 0,0 0,0l-1 0c0,0 -1,-1 -1,-1 0,-1 -1,-1 -2,-1l-1 0c-1,0 -2,0 -2,1 0,0 0,1 0,2 0,1 0,2 0,2 0,1 1,1 2,1l2 0c0,0 1,0 1,-1 0,-1 1,-1 1,-1l1 0c0,0 0,0 0,0 0,0 1,0 1,0 0,1 0,1 0,1 0,1 -1,2 -1,2 -1,1 -2,1 -3,1l-2 0c-2,0 -3,0 -4,-1z"/>
  <path class="fil133" d="M198 143c-1,1 -1,2 -1,3 0,1 0,2 1,2 0,1 1,1 2,1 1,0 2,0 2,-1 1,0 1,-1 1,-2 0,-1 0,-2 -1,-3 0,0 -1,0 -2,0 -1,0 -2,0 -2,0zm-2 7c-1,-1 -1,-2 -1,-4 0,-2 0,-3 1,-4 1,-1 2,-1 4,-1 2,0 3,0 4,1 1,1 2,2 2,4 0,2 -1,3 -2,4 -1,1 -2,1 -4,1 -2,0 -3,0 -4,-1z"/>
  <path class="fil133" d="M207 150l0 -8c0,-1 0,-1 0,-1 1,0 1,0 1,0l1 0c0,0 1,0 1,0 0,0 0,0 0,1l0 3 1 0c1,0 1,0 1,0 1,-1 1,-1 1,-1l1 -2c1,-1 1,-1 1,-1l2 0c0,0 0,0 0,0 0,0 0,0 0,0 0,0 0,0 0,1l-1 2c0,1 -1,1 -1,1 0,1 -1,1 -1,1 0,0 1,0 1,0 0,1 1,1 1,2l2 2c0,0 0,1 0,1 0,0 0,0 0,0 0,0 -1,0 -1,0l-1 0c-1,0 -1,0 -1,0 0,0 0,0 0,-1l-2 -2c0,0 0,0 -1,-1 0,0 0,0 -1,0l-1 0 0 3c0,1 0,1 0,1 0,0 -1,0 -1,0l-1 0c0,0 0,0 -1,0 0,0 0,-1 0,-1z"/>
  <path class="fil133" d="M42 169l0 -9c0,0 1,0 1,0 0,0 0,0 0,0l1 0c1,0 1,0 1,0 0,0 0,0 0,0l0 7 4 -7c0,0 0,0 1,0 0,0 0,0 0,0l2 0c0,0 0,0 1,0 0,0 0,0 0,0l0 9c0,0 0,0 0,0 -1,1 -1,1 -1,1l-1 0c0,0 0,0 -1,-1 0,0 0,0 0,0l0 -7 -4 7c0,0 0,0 0,0 0,1 0,1 -1,1l-2 0c0,0 0,0 0,-1 0,0 -1,0 -1,0z"/>
  <path class="fil133" d="M60 169l0 -9c0,0 0,0 0,0 0,0 0,0 0,0l2 0c0,0 0,0 0,0 0,0 0,0 0,0l0 8 3 0 0 -8c0,0 0,0 1,0 0,0 0,0 0,0l1 0c0,0 1,0 1,0 0,0 0,0 0,0l0 8 3 0 0 -8c0,0 0,0 0,0 0,0 1,0 1,0l1 0c0,0 0,0 0,0 1,0 1,0 1,0l0 9c0,0 0,0 -1,0 0,1 0,1 0,1l-13 0c0,0 0,0 0,-1 0,0 0,0 0,0z"/>
  <path class="fil133" d="M75 161l0 -1c0,0 0,0 0,0 0,0 0,0 0,0l9 0c1,0 1,0 1,0 0,0 0,0 0,0l0 1c0,0 0,0 0,0 0,1 0,1 -1,1l-3 0 0 7c0,0 0,0 0,0 0,1 0,1 0,1l-2 0c0,0 0,0 0,-1 0,0 0,0 0,0l0 -7 -4 0c0,0 0,0 0,-1 0,0 0,0 0,0z"/>
  <path class="fil133" d="M85 160c0,0 0,0 0,0 0,0 0,0 0,0 0,0 1,0 1,0l1 0c1,0 1,0 1,0l1 2c0,1 0,1 1,1 0,1 1,1 1,1l1 0 1 -4c0,0 1,0 1,0 0,0 0,0 0,0l2 0c0,0 0,0 0,0 0,0 0,0 0,0 0,0 0,0 0,0l-2 7c0,1 -1,1 -2,2 0,0 -1,1 -2,1l-2 0c0,0 0,0 0,-1 -1,0 -1,0 -1,0l0 -1c0,0 0,0 1,0 0,0 0,0 0,0l0 0 1 0 0 0 1 0c1,0 1,-1 1,-2l0 0c-1,0 -2,0 -3,-1 -1,0 -1,-1 -2,-2l-1 -3z"/>
  <path class="fil133" d="M97 169l0 -9c0,0 0,0 0,0 1,0 1,0 1,0l1 0c0,0 1,0 1,0 0,0 0,0 0,0l0 4 1 0c1,0 1,0 1,-1 1,0 1,0 1,-1l1 -2c1,0 1,0 1,0l2 0c0,0 0,0 0,0 0,0 0,0 0,0 0,0 0,0 0,0l-1 3c0,0 -1,1 -1,1 0,0 -1,0 -1,1 0,0 1,0 1,0 0,0 1,1 1,1l2 3c0,0 0,0 0,0 0,0 0,0 0,0 0,1 -1,1 -1,1l-1 0c0,0 -1,0 -1,-1 0,0 0,0 0,0l-2 -2c0,0 0,-1 -1,-1 0,0 0,0 -1,0l-1 0 0 3c0,0 0,0 0,0 0,1 -1,1 -1,1l-1 0c0,0 0,0 -1,-1 0,0 0,0 0,0z"/>
  <path class="fil133" d="M112 165l4 0 0 -3 -2 0c0,0 -1,0 -1,0 -1,0 -1,1 -1,1l0 2zm-4 4l2 -7c0,-1 2,-2 4,-2l4 0c0,0 0,0 0,0 1,0 1,0 1,0l0 9c0,0 0,0 -1,0 0,1 0,1 0,1l-1 0c-1,0 -1,0 -1,-1 0,0 0,0 0,0l0 -2 -5 0 0 2c-1,0 -1,0 -1,0 0,1 0,1 0,1l-2 0c0,0 0,0 0,-1 0,0 0,0 0,0 0,0 0,0 0,0z"/>
  <path class="fil133" d="M120 161l0 -1c0,0 0,0 0,0 0,0 0,0 0,0l9 0c0,0 1,0 1,0 0,0 0,0 0,0l0 1c0,0 0,0 0,0 0,1 -1,1 -1,1l-3 0 0 7c0,0 0,0 0,0 0,1 0,1 -1,1l-1 0c0,0 0,0 0,-1 0,0 0,0 0,0l0 -7 -4 0c0,0 0,0 0,-1 0,0 0,0 0,0z"/>
  <path class="fil133" d="M130 160c0,0 0,0 0,0 0,0 0,0 0,0 0,0 0,0 1,0l1 0c1,0 1,0 1,0l1 2c0,1 0,1 1,1 0,1 1,1 1,1l1 0 1 -4c0,0 0,0 1,0 0,0 0,0 0,0l2 0c0,0 0,0 0,0 0,0 0,0 0,0 0,0 0,0 0,0l-2 7c-1,1 -1,1 -2,2 0,0 -1,1 -2,1l-2 0c0,0 0,0 -1,-1 0,0 0,0 0,0l0 -1c0,0 0,0 0,0 1,0 1,0 1,0l0 0 1 0 0 0 1 0c0,0 1,-1 1,-2l0 0c-1,0 -2,0 -3,-1 -1,0 -1,-1 -2,-2l-1 -3z"/>
  <path class="fil133" d="M145 165l2 0c1,0 2,0 2,0 1,0 1,-1 1,-1 0,-1 0,-2 -1,-2 0,0 -1,0 -2,0l-2 0 0 3zm-3 4l0 -9c0,0 0,0 0,0 1,0 1,0 1,0l5 0c3,0 4,1 4,4 0,2 -1,3 -4,3l-3 0 0 2c0,0 0,0 0,0 0,1 -1,1 -1,1l-1 0c0,0 0,0 -1,-1 0,0 0,0 0,0z"/>
  <path class="fil133" d="M156 162c0,1 0,2 0,3 0,1 0,2 0,2 1,1 2,1 3,1 1,0 2,0 2,-1 1,0 1,-1 1,-2 0,-1 0,-2 -1,-3 0,0 -1,-1 -2,-1 -1,0 -2,1 -3,1zm-1 7c-1,-1 -2,-3 -2,-4 0,-2 1,-4 2,-4 1,-1 2,-2 4,-2 2,0 3,1 4,2 1,0 1,2 1,4 0,1 0,3 -1,4 -1,0 -2,1 -4,1 -2,0 -3,-1 -4,-1z"/>
  <path class="fil133" d="M166 169l0 -9c0,0 0,0 0,0 0,0 0,0 0,0l2 0c0,0 0,0 0,0 0,0 0,0 0,0l0 4 2 0c0,0 1,0 1,-1 0,0 1,0 1,-1l1 -2c0,0 1,0 1,0l2 0c0,0 0,0 0,0 0,0 0,0 0,0 0,0 0,0 0,0l-2 3c0,0 0,1 0,1 -1,0 -1,0 -1,1 0,0 0,0 0,0 1,0 1,1 1,1l2 3c0,0 0,0 0,0 0,0 0,0 0,0 0,1 0,1 0,1l-2 0c0,0 0,0 0,-1 -1,0 -1,0 -1,0l-1 -2c0,0 -1,-1 -1,-1 0,0 -1,0 -1,0l-2 0 0 3c0,0 0,0 0,0 0,1 0,1 0,1l-2 0c0,0 0,0 0,-1 0,0 0,0 0,0z"/>
 </g>
</svg>
